<?xml version="1.0" encoding="UTF-8" standalone="no"?>
<svg
   xmlns:dc="http://purl.org/dc/elements/1.1/"
   xmlns:cc="http://creativecommons.org/ns#"
   xmlns:rdf="http://www.w3.org/1999/02/22-rdf-syntax-ns#"
   xmlns:svg="http://www.w3.org/2000/svg"
   xmlns="http://www.w3.org/2000/svg"
   xmlns:sodipodi="http://sodipodi.sourceforge.net/DTD/sodipodi-0.dtd"
   xmlns:inkscape="http://www.inkscape.org/namespaces/inkscape"
   width="210mm"
   height="297mm"
   viewBox="0 0 210 297"
   version="1.1"
   id="svg8"
   inkscape:version="1.0.1 (3bc2e813f5, 2020-09-07)"
   sodipodi:docname="çizim.svg">
  <defs
     id="defs2" />
  <sodipodi:namedview
     id="base"
     pagecolor="#ffffff"
     bordercolor="#666666"
     borderopacity="1.0"
     inkscape:pageopacity="0.0"
     inkscape:pageshadow="2"
     inkscape:zoom="0.98994949"
     inkscape:cx="324.15059"
     inkscape:cy="434.70027"
     inkscape:document-units="mm"
     inkscape:current-layer="layer1"
     inkscape:document-rotation="0"
     showgrid="false"
     inkscape:window-width="1920"
     inkscape:window-height="1001"
     inkscape:window-x="-9"
     inkscape:window-y="-9"
     inkscape:window-maximized="1" />
  <metadata
     id="metadata5">
    <rdf:RDF>
      <cc:Work
         rdf:about="">
        <dc:format>image/svg+xml</dc:format>
        <dc:type
           rdf:resource="http://purl.org/dc/dcmitype/StillImage" />
        <dc:title></dc:title>
      </cc:Work>
    </rdf:RDF>
  </metadata>
  <g
     inkscape:label="Katman 1"
     inkscape:groupmode="layer"
     id="layer1">
    <path
       style="fill:#008080;stroke-width:0.264583"
       id="path100"
       sodipodi:type="arc"
       sodipodi:cx="99.290627"
       sodipodi:cy="124.28033"
       sodipodi:rx="80.314491"
       sodipodi:ry="70.826424"
       sodipodi:start="0"
       sodipodi:end="6.2685594"
       sodipodi:open="true"
       sodipodi:arc-type="arc"
       d="M 179.60512,124.28033 A 80.314491,70.826424 0 0 1 99.584294,195.10628 80.314491,70.826424 0 0 1 18.978283,124.79827 80.314491,70.826424 0 0 1 98.40964,53.458164 80.314491,70.826424 0 0 1 179.59653,123.24446"
       inkscape:export-xdpi="96"
       inkscape:export-ydpi="96" />
    <path
       style="fill:#ff0000;stroke-width:0.264583"
       id="path20"
       d="m 56.825893,107.0554 c 0.03332,-0.96937 -0.08833,-1.92032 -0.348073,-2.85288 -0.176056,-0.68916 -0.473636,-1.3221 -0.856805,-1.91655 -0.488628,-0.64331 -1.235509,-0.98268 -1.945852,-1.32252 -0.915104,-0.45046 -1.883915,-0.76774 -2.881559,-0.970655 -0.660802,-0.125177 -1.334428,-0.133329 -2.004531,-0.139679 -0.635701,0.0065 -1.272241,-0.01085 -1.907293,0.02143 -0.572662,0.04622 -1.124347,0.199894 -1.673784,0.358014 -1.709999,0.63649 -3.331104,1.55651 -4.766045,2.68591 -0.516202,0.32693 -0.978133,0.73132 -1.440048,1.13072 -0.427424,0.44774 -0.851908,0.88845 -1.309484,1.30851 -0.517297,0.47624 -1.019532,0.96844 -1.52025,1.46197 -0.424667,0.49341 -0.762556,1.04684 -1.098487,1.60219 -0.274741,0.48772 -0.563697,0.96978 -0.854048,1.44976 -0.303869,0.5204 -0.519856,1.07532 -0.704398,1.64759 -0.104868,0.58551 -0.334817,1.13011 -0.524632,1.69055 -0.131114,0.65099 -0.323844,1.28595 -0.440838,1.94007 -0.184658,0.55693 -0.289996,1.13028 -0.334634,1.71396 -0.01752,0.70317 -0.03086,1.39926 -0.126389,2.09634 -0.09002,0.69491 -0.140152,1.39364 -0.167198,2.09354 -0.0619,0.67608 0.04164,1.34084 0.121848,2.00978 0.07932,0.88348 0.250688,1.75828 0.503386,2.6081 0.163536,0.72876 0.473766,1.39449 0.797526,2.06168 0.29868,0.56631 0.534286,1.14794 0.919056,1.66325 0.368456,0.44911 0.79987,0.84416 1.271445,1.1823 0.519874,0.33957 1.10544,0.51666 1.708624,0.63555 0.562424,0.0904 1.133721,0.12085 1.702747,0.10703 0.479435,-0.084 0.966578,-0.14634 1.435303,-0.27938 1.792481,-0.61973 3.203051,-1.63502 4.907275,-2.63049 0.434086,-0.34072 0.906791,-0.62877 1.351783,-0.9591 0.550735,-0.3442 0.977916,-0.83659 1.48377,-1.23502 0.451017,-0.4683 0.870561,-0.96845 1.280263,-1.47285 0.240705,-0.44296 0.665205,-0.70981 0.943914,-1.12641 0.258236,-0.33479 0.580665,-0.61415 0.837266,-0.94816 0.206523,-0.43594 0.506775,-0.81326 0.763387,-1.21759 0.311888,-0.36515 0.687707,-0.66941 0.990028,-1.04127 0.05919,-0.0529 0.11375,-0.11142 0.177575,-0.15858 0.466029,-0.27949 -0.06251,0.0543 0.365133,-0.2688 0.05667,-0.0428 0.242049,-0.14869 0.180668,-0.11295 -1.071713,0.62386 -4.294219,2.48243 -3.211753,1.87741 1.20392,-0.6729 2.384118,-1.3874 3.576174,-2.0811 1.305621,-0.67603 -0.18362,0.0916 -3.050685,1.77308 -0.05992,0.0352 0.125759,-0.0595 0.19091,-0.0836 0.217953,-0.0807 0.442468,-0.11198 0.671298,-0.14269 0.358595,-0.034 0.716772,0.0448 0.975164,0.30443 0.189958,0.38264 0.211813,0.8297 0.30234,1.24575 0.112654,0.51653 0.143825,1.04457 0.162856,1.57131 0.01381,0.53321 0.01175,1.06666 0.01119,1.6 -7.94e-4,0.53462 -0.0016,1.06925 -0.0019,1.60388 -0.130024,0.50164 -0.116099,1.03803 -0.273624,1.53007 -0.128903,0.43809 -0.194868,0.87883 -0.338156,1.3114 -0.168897,0.4715 -0.275484,0.97325 -0.512898,1.41695 -0.209941,0.6031 -0.462817,1.18816 -0.702143,1.7797 -0.27808,0.4802 -0.524084,0.98296 -0.746109,1.49221 -0.227116,0.47366 -0.570847,0.85445 -0.892463,1.25991 -0.280946,0.50245 -0.701996,0.89474 -1.06308,1.33821 -0.374095,0.42632 -0.627367,0.9369 -0.933805,1.41156 -0.301003,0.43489 -0.598474,0.87032 -0.929949,1.28439 -0.402305,0.45807 -0.706697,0.99379 -1.099685,1.45816 -0.312878,0.40433 -0.541695,0.87174 -0.899444,1.23837 -0.451109,0.40949 -0.902761,0.8095 -1.333314,1.24226 -0.395952,0.36232 -0.80689,0.69501 -1.269876,0.96705 -1.203611,0.82546 -0.320757,0.213 2.995999,-1.72455 0.0825,-0.0482 -0.165444,0.0958 -0.250082,0.14009 -0.296076,0.1551 -0.601604,0.25949 -0.918427,0.36318 -0.734562,0.23258 -1.490038,0.39304 -2.22092,0.63676 -0.814295,0.29901 -1.660059,0.49697 -2.500016,0.70764 -0.828339,0.24691 -1.685817,0.34477 -2.544551,0.40594 -0.62942,0.0352 -1.25835,0.0777 -1.875946,-0.0678 -0.491395,-0.18383 -0.769826,-0.60223 -1.003184,-1.04565 -0.263437,-0.56204 -0.476914,-1.13453 -0.590518,-1.74519 -0.09938,-0.67911 -0.223255,-1.35294 -0.290692,-2.03681 -0.04569,-0.70596 -0.09634,-1.41716 -0.02524,-2.12224 0.0803,-0.62465 0.132549,-1.245 0.305457,-1.85067 0.124176,-0.36681 0.22647,-0.83136 0.549073,-1.07245 1.229773,-0.619 3.060769,-1.80359 -2.736754,1.60555 -0.121743,0.0716 0.262757,-0.10469 0.398155,-0.14487 0.459468,-0.0935 0.934239,-0.13703 1.399363,-0.0683 0.296876,0.0597 0.541311,0.22802 0.768392,0.41946 0,0 3.387101,-2.09534 3.387101,-2.09534 v 0 c -0.260308,-0.25521 -0.5574,-0.45675 -0.893532,-0.60092 -0.496335,-0.11539 -0.984645,-0.12712 -1.492324,-0.0595 -1.715426,0.22836 -3.25046,1.33843 -4.497007,2.49934 -0.21522,0.38301 -0.366572,0.80435 -0.468098,1.2313 -0.145259,0.62528 -0.179213,1.26926 -0.257635,1.90517 -0.0392,0.72966 -0.01683,1.46318 0.05077,2.19076 0.08077,0.69363 0.206539,1.37995 0.303493,2.07133 0.13883,0.64064 0.370636,1.24636 0.646435,1.84062 0.275207,0.53896 0.621324,1.01733 1.163897,1.31628 0.639337,0.23919 1.301779,0.21339 1.97553,0.17174 0.872069,-0.0419 1.748967,-0.11523 2.594946,-0.34318 0.830302,-0.23935 1.68643,-0.39123 2.503488,-0.6751 0.726895,-0.26135 1.469974,-0.46924 2.22315,-0.64403 0.111017,-0.0379 0.222033,-0.0758 0.33305,-0.11366 0.110511,-0.0282 0.222806,-0.05 0.331528,-0.0845 0.130135,-0.0412 0.418629,-0.16294 0.540848,-0.23319 3.385106,-1.94549 2.46131,-1.3393 3.799679,-2.22543 0.431665,-0.31878 0.851426,-0.64677 1.227172,-1.03316 0.443224,-0.42915 0.931325,-0.81334 1.331637,-1.28448 0.294944,-0.41562 0.575014,-0.84168 0.886145,-1.24564 0.356275,-0.49493 0.715238,-0.98836 1.100685,-1.46118 0.319514,-0.43046 0.628248,-0.86851 0.917266,-1.32019 0.289393,-0.47281 0.572299,-0.95246 0.9496,-1.36258 0.367678,-0.43924 0.749998,-0.86322 1.066281,-1.34286 0.341146,-0.40971 0.617786,-0.86524 0.845045,-1.34771 0.245163,-0.50333 0.500036,-1.00188 0.740053,-1.50749 0.245374,-0.58571 0.458229,-1.1841 0.710869,-1.76653 0.188841,-0.48086 0.345498,-0.97475 0.501481,-1.4671 0.129643,-0.43881 0.186499,-0.89557 0.323593,-1.33315 0.09483,-0.53412 0.178832,-1.07327 0.228685,-1.61313 5.29e-4,-0.53465 0.0013,-1.0693 0.0019,-1.60395 -3.5e-5,-0.53843 0.0013,-1.07706 -0.01918,-1.6152 -0.02697,-0.54737 -0.07258,-1.09462 -0.193108,-1.6306 -0.101442,-0.48465 -0.12337,-1.00118 -0.395489,-1.4296 -0.307647,-0.36953 -0.711994,-0.55543 -1.189323,-0.60997 -1.800212,0.10439 -3.226049,1.11051 -4.714891,2.26454 1.077415,-0.62 4.286155,-2.51919 3.23224,-1.86002 -1.320649,0.82599 -3.128806,1.46815 -4.274786,2.69934 -0.345707,0.34279 -0.690028,0.69428 -0.967202,1.096 -0.268714,0.3875 -0.49488,0.80592 -0.789223,1.17415 -0.29518,0.30344 -0.55593,0.63843 -0.824585,0.96517 -0.326213,0.36037 -0.674296,0.69728 -0.940774,1.10789 -0.421513,0.48313 -0.804878,1.00459 -1.306253,1.4111 -0.474691,0.43081 -0.960855,0.84342 -1.492872,1.20358 -0.457319,0.31415 -0.905938,0.63808 -1.364424,0.94992 5.880087,-3.36783 3.409146,-1.78714 1.918253,-1.26725 -0.437907,0.21704 -0.905555,0.23237 -1.374487,0.35361 -0.533037,0.12689 -1.100857,0.0188 -1.642051,-0.008 -0.566256,-0.0794 -1.10942,-0.20845 -1.609149,-0.49748 -0.454355,-0.28917 -0.855202,-0.66194 -1.205415,-1.06928 -0.372755,-0.49102 -0.598792,-1.05201 -0.889891,-1.59249 -0.316577,-0.64565 -0.598909,-1.29863 -0.772092,-2.00001 -0.242332,-0.83186 -0.401333,-1.68614 -0.467857,-2.55069 -0.07371,-0.65254 -0.137967,-1.30223 -0.08373,-1.95985 0.02887,-0.68887 0.07994,-1.37675 0.17635,-2.05985 0.08272,-0.70189 0.07313,-1.40538 0.12835,-2.10941 0.0708,-0.57094 0.206552,-1.1253 0.349938,-1.68189 0.12942,-0.63462 0.290284,-1.26468 0.466605,-1.88735 0.201261,-0.55647 0.370946,-1.11876 0.520618,-1.69107 0.200946,-0.54833 0.437677,-1.07839 0.74403,-1.57726 0.279477,-0.48346 0.582112,-0.95308 0.850641,-1.44295 0.327641,-0.5363 0.688911,-1.05949 1.130739,-1.50874 0.504002,-0.49186 1.012171,-0.97942 1.531599,-1.45504 0.449207,-0.42224 0.843034,-0.8977 1.318307,-1.29156 0.469522,-0.38616 0.938401,-0.77201 1.448557,-1.10447 1.271497,-0.86145 0.253476,-0.16245 -2.89474,1.63753 -0.233482,0.13349 0.33668,-0.21369 0.622943,-0.3186 0.07558,-0.0277 0.148603,-0.0619 0.222906,-0.0929 0.502163,-0.24195 1.073539,-0.33957 1.617988,-0.4427 0.620014,-0.10615 1.255141,-0.0305 1.881963,-0.0577 0.658389,-0.002 1.319498,-0.008 1.973775,0.0767 0.982938,0.1529 1.943741,0.42493 2.835318,0.87451 0.640654,0.30469 1.337333,0.60316 1.80472,1.15563 0.367996,0.55552 0.647113,1.14993 0.815567,1.79895 0.246902,0.90653 0.347565,1.82848 0.279919,2.76847 0,0 3.536741,-1.80206 3.536741,-1.80206 z" />
    <path
       style="fill:#ff0000;stroke-width:0.264583"
       id="path22"
       d="m 32.273629,148.48436 c 0.805172,0.36121 1.631881,0.67697 2.466681,0.96297 0.57858,0.1782 1.14218,0.38106 1.739376,0.48845 0.595111,0.10963 1.183164,0.27547 1.792298,0.25025 0,0 3.167152,-2.40514 3.167152,-2.40514 v 0 c -0.54683,0.23525 -1.159086,-0.015 -1.713235,-0.12905 -0.594114,-0.0745 -1.144201,-0.25383 -1.713867,-0.42849 -0.825569,-0.25146 -1.638525,-0.56065 -2.422221,-0.92093 0,0 -3.316184,2.18194 -3.316184,2.18194 z" />
    <path
       style="fill:#ff0000;stroke-width:0.264583"
       id="path28"
       d="m 36.112921,149.48681 c 0.792892,-0.15062 1.59441,-0.27263 2.37604,-0.47627 0.52293,-0.10173 0.991907,-0.34159 1.465442,-0.57272 0.684498,-0.31828 1.394084,-0.57796 2.077678,-0.89804 1.596967,-0.7954 0.271007,-0.12658 4.014091,-2.2867 0.3277,-0.18912 0.66488,-0.38511 0.960536,-0.62 0.600096,-0.36371 1.171816,-0.7728 1.670071,-1.26761 0.485756,-0.37127 0.863148,-0.84218 1.185614,-1.35595 0.301998,-0.29206 0.416367,-0.70645 0.708604,-1.00493 0.120584,-0.2762 0.373221,-0.41794 0.574503,-0.62126 0.122076,-0.12331 0.224515,-0.26463 0.337259,-0.39652 0.420317,-0.50259 0.688814,-1.11579 1.075383,-1.64562 0.288036,-0.48095 0.541039,-0.98663 0.766646,-1.50023 0.295048,-0.41587 0.458161,-0.90292 0.69237,-1.35239 0.205155,-0.43869 0.460116,-0.85041 0.68735,-1.27788 0.225341,-0.40503 0.457653,-0.81848 0.615474,-1.25635 0.276246,-0.50783 0.337331,-1.08892 0.393949,-1.65481 0.02185,-0.0825 0.04372,-0.16508 0.06558,-0.24762 0,0 -3.575759,1.72929 -3.575759,1.72929 v 0 c -0.01513,0.0929 -0.03029,0.18584 -0.04543,0.27876 -0.0719,0.54485 -0.192556,1.06944 -0.451205,1.55966 -0.197051,0.41289 -0.397237,0.82488 -0.634846,1.21633 -0.241861,0.42046 -0.459206,0.85622 -0.673262,1.2913 -0.216664,0.46036 -0.441206,0.91562 -0.687041,1.361 -0.240821,0.49138 -0.474916,0.98942 -0.787489,1.4406 -0.342131,0.54943 -0.654683,1.12706 -1.102633,1.59979 -0.314605,0.34089 -0.660691,0.65009 -0.911003,1.04595 -0.218617,0.35028 -0.435549,0.6996 -0.692949,1.02325 -0.354827,0.46937 -0.740251,0.89786 -1.203161,1.26647 -0.535818,0.45424 -1.118243,0.84049 -1.704615,1.22567 -0.235111,0.14465 -0.468312,0.29233 -0.704368,0.43545 -0.08542,0.0518 -0.343726,0.2037 -0.256905,0.1543 3.324809,-1.89187 4.16806,-2.29721 2.770565,-1.61092 -0.660648,0.35677 -1.3663,0.61301 -2.061448,0.89435 -0.470156,0.22251 -0.918178,0.50844 -1.426503,0.63121 -0.767321,0.22734 -1.551054,0.35534 -2.333459,0.52405 0,0 -3.185085,2.36839 -3.185085,2.36839 z" />
    <path
       style="fill:#ff00ff;stroke-width:0.264583"
       id="path30"
       d="m 37.462441,148.40268 c 0.822545,-0.22064 1.630648,-0.49029 2.443715,-0.74258 0.589315,-0.18315 1.175422,-0.38473 1.723253,-0.67105 1.371851,-0.73857 2.806012,-1.38866 3.95896,-2.42414 0.18456,-0.16575 0.323152,-0.35758 0.517996,-0.51519 1.068499,-0.76245 2.949522,-1.80192 -2.631403,1.50618 -0.11611,0.0688 0.240668,-0.12231 0.361974,-0.1815 0.384839,-0.18777 0.492046,-0.23236 0.896514,-0.41515 1.730208,-0.81653 3.513717,-1.65578 4.980445,-2.89108 0.301411,-0.29282 0.154231,-0.16559 0.435452,-0.38863 -1.087237,0.64098 -2.174471,1.28195 -3.261707,1.92293 0,0 3.103216,-2.50492 3.103216,-2.50492 v 0 c -1.17593,0.69036 -2.351863,1.38071 -3.527795,2.07106 -0.181441,0.16087 -0.218099,0.19902 -0.427644,0.35644 -0.100348,0.0754 -0.416211,0.27959 -0.306276,0.21903 5.643091,-3.10891 3.347495,-1.85149 2.09075,-1.22804 -1.894392,0.80292 -3.827592,1.69447 -5.393599,3.03619 -1.108822,1.11273 -3.427429,2.42591 2.300554,-1.05193 -0.545116,0.29025 -1.090745,0.56467 -1.687679,0.74209 -0.812268,0.23162 -1.608119,0.51779 -2.417985,0.75807 0,0 -3.158741,2.40222 -3.158741,2.40222 z" />
    <path
       style="fill:#ff00ff;stroke-width:0.264583"
       id="path38"
       d="m 64.117304,102.78768 c 0.893662,0.35687 1.653532,0.95283 2.350426,1.60397 0.606544,0.67264 1.040558,1.48138 1.504537,2.25449 0.390493,0.71455 0.722331,1.46105 1.044538,2.2086 0.173202,0.56357 0.377822,1.11625 0.567264,1.67444 0.257334,0.74562 0.575649,1.46843 0.829162,2.21519 0.146783,0.5775 0.412393,1.11305 0.587899,1.68128 0.177683,0.53418 0.288321,1.08666 0.439965,1.62803 0.136038,0.57724 0.294539,1.14962 0.404429,1.7327 0.116644,0.71255 0.392676,1.3818 0.550005,2.08353 0.210227,0.5851 0.266052,1.20581 0.408218,1.80595 0.144925,0.52359 0.208531,1.06138 0.242202,1.60191 0.02482,0.52942 0.02283,1.05962 0.0227,1.58948 -0.08254,0.42944 -0.178102,0.84173 -0.330205,1.24943 -0.100989,0.29684 -0.136308,0.60817 -0.168281,0.9182 0,0 3.565581,-1.75961 3.565581,-1.75961 v 0 c 0.04498,-0.28749 0.100819,-0.57262 0.208031,-0.84469 0.145545,-0.44006 0.228812,-0.90551 0.264007,-1.36698 -0.0011,-0.53826 -7.94e-4,-1.07706 -0.03572,-1.61444 -0.0452,-0.55815 -0.126373,-1.1113 -0.272512,-1.65295 -0.127797,-0.60468 -0.222163,-1.21654 -0.41397,-1.80665 -0.167955,-0.69332 -0.446897,-1.35603 -0.545547,-2.06713 -0.113305,-0.59265 -0.262014,-1.17856 -0.410956,-1.76307 -0.141656,-0.55048 -0.272773,-1.102 -0.449498,-1.6427 -0.18442,-0.56856 -0.434824,-1.11274 -0.601287,-1.68719 -0.26616,-0.74112 -0.583957,-1.46322 -0.821505,-2.21492 -0.191968,-0.56895 -0.387562,-1.13718 -0.58661,-1.70341 -0.338812,-0.75758 -0.685115,-1.51446 -1.092555,-2.23791 -0.479597,-0.80606 -0.919236,-1.65596 -1.54804,-2.3573 -0.723048,-0.67643 -1.512358,-1.29321 -2.409367,-1.72301 0,0 -3.302921,2.19476 -3.302921,2.19476 z" />
    <path
       style="fill:#ff00ff;stroke-width:0.264583"
       id="path40"
       d="m 82.893791,101.68503 c -0.918607,0.73435 -1.787909,1.53122 -2.574235,2.40648 -0.609113,0.74344 -1.120338,1.56569 -1.548643,2.42508 -0.338079,0.686 -0.665631,1.37785 -0.912998,2.10283 -0.348998,0.75227 -0.579199,1.54737 -0.824386,2.33719 -0.193455,0.88956 -0.476507,1.75483 -0.709499,2.63367 -0.175402,0.7731 -0.372115,1.54346 -0.676042,2.27686 -0.199268,0.56046 -0.464981,1.07569 -0.590605,1.65929 -0.220366,0.58484 -0.294402,1.20037 -0.346258,1.81848 -0.102523,0.62446 -0.268287,1.23404 -0.400328,1.85211 -0.05015,0.55935 -0.262913,1.07758 -0.346035,1.63007 -0.181163,0.56606 -0.329975,1.14239 -0.450218,1.72491 -0.265583,0.74657 -0.329813,1.53664 -0.392964,2.32046 -0.04833,0.66188 -0.05586,1.32565 -0.05869,1.98898 0.04747,0.54258 -0.04413,1.06232 -0.133686,1.59348 -0.08801,0.53661 -0.110631,1.08031 -0.124664,1.62293 -0.103756,0.61163 -0.190907,1.22471 -0.229814,1.844 -0.03254,0.72134 -0.037,1.44336 -0.03967,2.16528 0.0019,0.61881 -0.140745,1.22694 -0.207428,1.84132 -0.05272,0.5448 -0.05947,1.09247 -0.0642,1.63934 -0.02183,0.60144 5.3e-4,1.19329 0.09136,1.78766 0.09768,0.55881 0.140975,1.12396 0.163758,1.69008 0.01622,0.53334 0.01484,1.06702 0.01469,1.60055 0.0896,0.53821 0.179474,1.07469 0.225835,1.61866 -0.0024,0.54701 0.135615,1.07623 0.21591,1.61412 0.143299,0.56849 0.283311,1.13674 0.496065,1.68374 0.152495,0.48031 0.406363,0.91791 0.546777,1.40168 0.161153,0.4354 0.385824,0.83781 0.622382,1.23517 0.231402,0.37774 0.551133,0.65619 0.902981,0.91587 0.407381,0.27137 0.887031,0.3431 1.365501,0.36751 1.739368,-0.24798 3.362532,-1.37241 4.6291,-2.51271 0.255143,-0.3595 0.471085,-0.72793 0.579591,-1.15877 0.121076,-0.23344 0.06517,-0.11216 0.166571,-0.36437 0,0 -3.615044,1.66667 -3.615044,1.66667 v 0 c -0.108054,0.25359 -0.05695,0.12325 -0.152567,0.39134 -0.151048,0.36023 -0.368118,0.70695 -0.665038,0.96413 -1.109329,0.94903 -0.124468,0.0892 3.065412,-1.71413 0.336142,-0.19003 -1.038138,0.63887 -0.807326,0.36458 -0.397909,0.0913 -0.835213,0.0116 -1.209064,-0.14587 -0.324704,-0.20738 -0.605115,-0.44225 -0.817734,-0.76826 -0.220967,-0.36972 -0.429945,-0.74414 -0.576493,-1.15141 -0.156697,-0.48734 -0.405434,-0.93512 -0.56797,-1.42088 -0.196895,-0.52294 -0.327195,-1.06782 -0.452499,-1.61177 -0.08541,-0.52934 -0.197723,-1.05409 -0.20438,-1.5928 -0.05382,-0.53134 -0.15577,-1.05509 -0.208801,-1.58601 -5.29e-4,-0.53895 -5.29e-4,-1.07813 -0.02387,-1.61668 -0.03109,-0.57706 -0.08783,-1.15183 -0.186066,-1.72173 -0.07873,-0.57699 -0.06879,-1.15428 -0.05773,-1.73573 0.0075,-0.5346 0.01937,-1.07 0.08044,-1.60171 0.07568,-0.62348 0.201583,-1.24497 0.178853,-1.87591 0.0032,-0.71399 0.0058,-1.42895 0.0565,-2.14146 0.0572,-0.62406 0.161322,-1.24106 0.228909,-1.86369 0.01968,-0.52743 0.0536,-1.05491 0.14799,-1.57512 0.09061,-0.54808 0.130691,-1.09381 0.102981,-1.64999 0.0019,-0.65119 0.0075,-1.30296 0.05779,-1.95258 0.069,-0.77368 0.190513,-1.53418 0.423989,-2.27718 0.137753,-0.58408 0.314944,-1.15786 0.453639,-1.74158 0.120063,-0.5375 0.269849,-1.06733 0.344913,-1.61446 0.14359,-0.62859 0.305105,-1.2544 0.379963,-1.89632 0.06426,-0.60287 0.187958,-1.18962 0.37742,-1.76642 0.161515,-0.55084 0.425289,-1.06564 0.601499,-1.6125 0.266454,-0.75473 0.463992,-1.52918 0.65034,-2.30717 0.248272,-0.86965 0.477158,-1.74358 0.708192,-2.61774 0.249605,-0.78956 0.528926,-1.5661 0.848191,-2.33025 0.266814,-0.70419 0.588658,-1.385 0.933058,-2.0544 0.441598,-0.8217 0.930516,-1.62321 1.561992,-2.31523 0.813686,-0.85399 1.687216,-1.65303 2.636657,-2.35489 0,0 -3.684317,1.4652 -3.684317,1.4652 z" />
    <circle
       id="path42"
       style="fill:#550000;stroke:#000000;stroke-width:0.264583"
       cx="107.44235"
       cy="151.27455"
       r="0.035322174" />
    <path
       style="fill:#550000;stroke-width:0.264583"
       id="path44"
       d="m 91.693941,150.41087 c 0.348705,-0.85908 0.582355,-1.76385 0.990539,-2.59772 0.186348,-0.51687 0.495744,-0.96858 0.739214,-1.4567 0.290795,-0.41524 0.513723,-0.86679 0.795411,-1.29226 0.32311,-0.7021 0.867881,-1.23141 1.353233,-1.81326 0.376828,-0.4725 0.848807,-0.84791 1.29,-1.25691 0.555225,-0.56593 1.2032,-1.02958 1.760297,-1.5913 0.502517,-0.43764 1.003842,-0.86963 1.535565,-1.27071 0.57585,-0.41102 1.03294,-0.96444 1.62299,-1.35193 0.61735,-0.42148 1.25668,-0.81809 1.81674,-1.31496 0.56165,-0.48805 1.10425,-0.99321 1.61517,-1.53624 0.61743,-0.69739 1.27097,-1.36421 1.87351,-2.07422 0.52685,-0.84244 1.11448,-1.64294 1.70703,-2.43967 0.71133,-0.83636 1.29193,-1.767 1.75384,-2.76081 0.52446,-1.05422 0.99282,-2.13254 1.42283,-3.22832 0.41119,-1.07896 0.87194,-2.1361 1.14588,-3.25988 0.19667,-1.15335 0.43206,-2.29978 0.63016,-3.45262 0.29884,-1.47474 0.3799,-2.98491 0.45584,-4.48473 0.0529,-1.63254 0.0851,-3.26806 0.0238,-4.90062 -0.0885,-1.13628 -0.10109,-2.28005 -0.22715,-3.41292 -0.0926,-1.02835 -0.3149,-2.03602 -0.59963,-3.02644 -0.34104,-1.05187 -0.79397,-2.062664 -1.18175,-3.097426 -0.30903,-0.790336 -0.62224,-1.588939 -1.06977,-2.312471 -0.27495,-0.437251 -0.45907,-0.927881 -0.97577,-1.109335 -2.32782,0.33581 -3.50157,1.500622 -4.16967,3.26566 -0.34119,0.736896 -0.56566,1.522042 -0.783,2.302502 -0.25101,1.10858 -0.38244,2.23791 -0.47832,3.36908 -0.14127,1.5256 -0.0771,3.04188 0.0978,4.55972 0.19015,1.50111 0.69276,2.93103 1.1785,4.35578 0.49237,1.38771 1.10957,2.72716 1.70923,4.07088 0.59747,1.40185 1.32645,2.73869 2.03568,4.08537 0.69487,1.35537 1.37327,2.71932 1.95927,4.12561 0.67049,1.59703 1.30534,3.20726 1.85102,4.85118 0.52227,1.54456 0.95337,3.11621 1.32539,4.70302 0.30083,1.33319 0.37138,2.6987 0.4123,4.05985 0.0157,1.03589 0.004,2.07189 0.007,3.10787 0.0663,1.4748 -0.0432,2.94252 -0.2461,4.40198 -0.12205,1.13393 -0.35774,2.2523 -0.64225,3.35552 -0.33177,1.06043 -0.68841,2.11741 -1.13445,3.13575 -0.34422,0.69513 -0.58947,1.43982 -0.96605,2.11813 -0.268,0.57625 -0.66114,1.08075 -1.02374,1.59927 -0.2956,0.45528 -0.6577,0.79513 -1.14811,1.02221 0,0 3.70454,-1.42621 3.70454,-1.42621 v 0 c 0.43824,-0.32013 0.78238,-0.72428 1.07825,-1.17935 0.36216,-0.53177 0.74179,-1.05356 1.00216,-1.64608 0.33223,-0.70066 0.61358,-1.42576 0.92885,-2.13417 0.4211,-1.04377 0.79854,-2.10826 1.10842,-3.19037 0.269,-1.11658 0.48955,-2.24465 0.60561,-3.38851 0.17517,-1.4793 0.25266,-2.96359 0.2396,-4.45373 0.009,-1.03774 0.009,-2.07552 -0.0274,-3.11286 -0.0479,-1.38406 -0.14386,-2.77087 -0.46328,-4.1231 -0.39301,-1.59212 -0.82252,-3.17564 -1.34632,-4.73038 -0.55799,-1.64873 -1.21879,-3.25759 -1.86217,-4.87444 -0.57637,-1.42558 -1.27873,-2.78787 -1.98719,-4.15176 -0.7015,-1.34178 -1.38896,-2.6911 -2.00795,-4.07344 -0.59953,-1.33095 -1.19428,-2.66669 -1.69205,-4.03968 -0.48202,-1.39798 -0.95853,-2.80709 -1.13751,-4.2825 -0.17445,-1.49589 -0.21034,-2.99194 -0.0515,-4.49316 0.10637,-1.11404 0.25667,-2.22737 0.53573,-3.312789 0.23301,-0.771052 0.47465,-1.540021 0.81691,-2.271165 0.12066,-0.269817 0.23754,-0.543047 0.41374,-0.7829 0.0453,-0.06165 0.21459,-0.212481 0.14744,-0.175844 -3.0766,1.678667 -4.18339,2.756847 -3.16171,1.776645 0.21058,-0.49517 0.57155,0.540864 0.72574,0.679556 0.44886,0.6927 0.73992,1.474986 1.04416,2.238767 0.40605,1.01437 0.85861,2.012 1.16556,3.06334 0.2676,0.9727 0.50464,1.95452 0.57037,2.96541 0.10612,1.12132 0.16195,2.24781 0.25399,3.37049 0.063,1.62315 0.01,3.24863 -0.0435,4.87156 -0.0774,1.49392 -0.17715,2.9918 -0.50687,4.45543 -0.20986,1.14119 -0.3914,2.28772 -0.64012,3.42145 -0.31249,1.09399 -0.74909,2.1467 -1.15091,3.21012 -0.44017,1.09102 -0.94406,2.1524 -1.45616,3.21126 -0.49349,0.9648 -1.0922,1.85993 -1.78344,2.69557 -0.58529,0.79997 -1.14463,1.61789 -1.73296,2.41473 -0.62172,0.68703 -1.22935,1.38686 -1.87511,2.05165 -0.53104,0.52323 -1.07846,1.02648 -1.650543,1.50462 -0.592183,0.45104 -1.210046,0.86425 -1.817945,1.29344 -0.544036,0.45098 -1.05298,0.94441 -1.62601,1.36055 -0.526187,0.41131 -1.022082,0.86026 -1.517554,1.3077 -0.589786,0.52434 -1.183423,1.04427 -1.761379,1.58172 -0.456896,0.40315 -0.891749,0.82912 -1.27421,1.30523 -0.506346,0.57661 -0.952095,1.18945 -1.330939,1.85879 -0.281741,0.43451 -0.520303,0.89323 -0.794702,1.33212 -0.268359,0.47635 -0.504076,0.96646 -0.710409,1.47309 -0.352875,0.86994 -0.630531,1.76799 -0.984512,2.63771 0,0 3.590941,-1.68644 3.590941,-1.68644 z" />
    <path
       style="fill:#e9afaf;stroke-width:0.264583"
       id="path46"
       d="m 92.085389,130.2994 c 0.114498,1.15936 0.334042,2.30284 0.540814,3.44808 0.148703,0.82312 0.404878,1.60843 0.782005,2.3533 0.635844,1.03866 1.378963,2.00754 2.115254,2.97643 0.612158,0.8805 1.39474,1.60613 2.143715,2.36368 0.631716,0.66053 1.314198,1.2737 2.008838,1.86728 0.690675,0.50982 1.368315,1.04024 2.084955,1.51352 0.73536,0.54206 1.5584,0.90968 2.39598,1.26013 0.85157,0.336 1.70926,0.6558 2.56327,0.98561 0.77392,0.32281 1.58986,0.50479 2.40592,0.68166 0.95026,0.21711 1.91621,0.36172 2.88342,0.47825 1.16194,0.12571 2.33076,0.16395 3.49847,0.18787 0.91207,0.0276 1.82583,-0.0456 2.72094,-0.22041 0.63451,-0.0966 1.22827,-0.25984 1.7953,-0.56057 2.28773,-1.24545 7.38867,-4.25301 0.72247,-0.38228 -0.14213,0.0825 0.29782,-0.13999 0.44022,-0.22205 1.20491,-0.69434 2.40296,-1.4005 3.60444,-2.10075 0.26284,-0.17226 0.14255,-0.0734 0.36132,-0.29602 0,0 -3.688,1.49141 -3.688,1.49141 v 0 c -0.2439,0.16745 -0.11888,0.0826 -0.37517,0.25438 1.06727,-0.61017 2.13634,-1.2172 3.20181,-1.83051 0.14377,-0.0828 -0.30806,0.12555 -0.45249,0.20713 -1.21264,0.68493 -2.42827,1.36539 -3.6214,2.08377 -0.9581,0.57687 4.63085,-2.50425 2.8973,-1.69186 -0.55974,0.30391 -1.0768,0.60813 -1.73338,0.65403 -0.87971,0.20424 -1.77861,0.33182 -2.68473,0.30481 -1.16193,-0.0132 -2.32525,-0.0354 -3.48241,-0.15075 -0.95449,-0.10826 -1.90453,-0.26351 -2.84573,-0.45441 -0.79675,-0.18526 -1.60316,-0.32938 -2.36638,-0.63634 -0.85201,-0.33626 -1.71536,-0.64062 -2.57053,-0.96869 -0.81617,-0.34412 -1.63069,-0.6763 -2.34514,-1.21225 -0.71743,-0.44504 -1.36773,-0.98846 -2.06624,-1.46237 -0.6895,-0.58312 -1.35514,-1.19888 -1.99021,-1.84053 -0.74396,-0.7409 -1.520081,-1.44974 -2.134505,-2.30957 -0.727667,-0.94197 -1.452091,-1.89283 -2.052235,-2.92242 -0.339103,-0.72056 -0.602739,-1.46773 -0.742442,-2.25457 -0.225055,-1.136 -0.449403,-2.27556 -0.499081,-3.43597 0,0 -3.516368,1.84098 -3.516368,1.84098 z" />
    <circle
       id="path48"
       style="fill:#ff6600;stroke:#000000;stroke-width:0.264583"
       cx="140.04924"
       cy="241.87892"
       r="0.035322174" />
    <path
       style="fill:#ff6600;stroke-width:0.264583"
       id="path50"
       d="m 158.47112,98.478127 c -1.04466,-0.321397 -2.08445,-0.655378 -3.16158,-0.849132 -0.80756,-0.125783 -1.62256,-0.196507 -2.43196,-0.06364 -1.50233,0.471575 -3.15803,1.696045 -4.24321,2.340229 -0.24364,0.144626 -0.44166,0.401226 -0.6094,0.621806 -0.37018,0.66294 -0.78367,1.29912 -1.14284,1.96829 -0.32348,0.62083 -0.46535,1.30835 -0.64643,1.97862 -0.22991,0.63626 -0.39993,1.2977 -0.55043,1.95766 -0.16413,0.78763 -0.16012,1.59712 -0.17591,2.39794 -0.0186,0.85676 -0.007,1.71368 -0.002,2.5705 0.009,0.95921 -0.002,1.91841 -0.003,2.87762 0.0265,1.02966 0.0149,2.05414 -0.0766,3.0798 -0.0693,1.24851 -0.22431,2.48929 -0.32815,3.73508 -0.072,1.22275 -0.26439,2.43551 -0.4735,3.64128 -0.2509,1.45907 -0.57207,2.90506 -0.84469,4.36028 -0.21514,1.43938 -0.47164,2.87451 -0.79213,4.29433 -0.18413,1.15984 -0.57324,2.26985 -0.8877,3.39737 -0.2562,0.85183 -0.55757,1.68571 -0.81629,2.53663 -0.28306,0.65907 -0.48579,1.34519 -0.79918,1.99116 -0.34944,0.77423 -0.79307,1.49914 -1.12733,2.28059 -0.2638,0.69431 -0.56127,1.37433 -0.82097,2.07052 -0.27256,0.52805 -0.55583,1.05303 -0.8554,1.56688 -0.2141,0.46178 -0.53386,0.85795 -0.84037,1.26065 -0.26525,0.45483 -0.67376,0.82887 -1.08163,1.15709 -0.5661,0.48876 -1.16844,0.93295 -1.82635,1.28974 -1.59118,0.92247 1.83655,-1.05626 2.74862,-1.59498 0.0944,-0.0558 -0.19588,0.0989 -0.29625,0.14315 -0.27687,0.12196 -0.56836,0.21218 -0.85325,0.31297 -0.51087,0.18815 -1.04887,0.25388 -1.58836,0.28957 -0.46923,0.0219 -0.9389,0.0566 -1.39532,-0.0718 -0.42172,-0.13997 -0.61205,-0.50872 -0.80511,-0.88233 -0.33354,-0.51163 -0.44373,-1.10246 -0.60851,-1.67703 -0.18558,-0.55534 -0.20608,-1.14138 -0.30184,-1.7135 -0.13091,-0.71356 -0.18884,-1.43694 -0.22291,-2.16069 -0.0309,-0.54843 -0.003,-1.12041 0.19927,-1.6363 0.15726,-0.47526 0.49203,-0.85611 0.76636,-1.2646 0.30874,-0.32592 0.55015,-0.67877 0.96786,-0.86601 -4.64234,2.72184 -4.04326,2.12868 -2.66911,1.65782 0.6484,-0.22218 1.30996,-0.39968 1.97694,-0.55541 0.65259,-0.15167 1.30533,-0.2415 1.96831,-0.12619 0.52608,0.11325 0.99846,0.36238 1.45577,0.63589 0.44604,0.30857 0.88104,0.63689 1.28711,0.99696 0.30821,0.26792 0.60789,0.54734 0.89145,0.84141 0.33137,0.29615 0.59433,0.65478 0.87531,0.99593 0.26139,0.36984 0.56755,0.68991 0.92039,0.97108 0,0 3.37379,-2.11426 3.37379,-2.11426 v 0 c -0.32734,-0.27378 -0.65411,-0.5341 -0.88717,-0.90387 -0.29088,-0.33991 -0.53619,-0.72492 -0.87915,-1.01744 -0.28097,-0.31138 -0.59834,-0.59159 -0.91493,-0.86567 -0.41399,-0.38603 -0.88243,-0.70771 -1.32727,-1.0568 -0.4774,-0.30922 -0.97977,-0.58433 -1.5303,-0.73915 -0.69624,-0.21023 -1.38715,-0.16548 -2.0936,-0.006 -0.67728,0.14381 -1.33356,0.33324 -1.99799,0.5259 -0.14617,0.0424 -0.30599,0.049 -0.44047,0.1202 -1.25294,0.66378 -2.47398,1.3861 -3.71097,2.07916 -0.3481,0.29387 -0.64372,0.6444 -0.91004,1.01391 -0.30024,0.4238 -0.57982,0.87099 -0.71468,1.37773 -0.12861,0.57779 -0.1898,1.16275 -0.12823,1.75445 0.0468,0.73398 0.1198,1.46631 0.24183,2.19198 0.0764,0.59257 0.12754,1.18995 0.31836,1.76099 0.16402,0.60246 0.31789,1.20656 0.64818,1.74624 0.22496,0.44188 0.46312,0.92353 0.94269,1.12883 0.47329,0.24024 0.98056,0.23631 1.50179,0.20882 0.55747,-0.0174 1.11882,-0.0469 1.65759,-0.20462 1.89759,-0.60546 3.53459,-1.57661 5.22662,-2.71668 0.63878,-0.40307 1.24086,-0.8576 1.80435,-1.36124 0.3984,-0.37666 0.77323,-0.77168 1.06189,-1.24108 0.30034,-0.41561 0.5879,-0.83849 0.81206,-1.30187 0.29163,-0.53236 0.60815,-1.05541 0.83126,-1.62142 0.26503,-0.68092 0.52706,-1.36274 0.80696,-2.0378 0.36649,-0.76841 0.80342,-1.50124 1.14088,-2.28384 0.29022,-0.66525 0.52683,-1.35146 0.77136,-2.03449 0.27023,-0.84646 0.56278,-1.68504 0.79935,-2.54219 0.31306,-1.1324 0.68183,-2.25138 0.86964,-3.41464 0.28983,-1.42387 0.53522,-2.857 0.76524,-4.29164 0.28057,-1.45856 0.60768,-2.90805 0.8553,-4.37262 0.20955,-1.21714 0.40311,-2.43938 0.46372,-3.6747 0.10509,-1.24807 0.2548,-2.49179 0.34163,-3.74145 0.083,-1.03783 0.0733,-2.07584 0.075,-3.1165 -0.002,-0.95748 -0.014,-1.91494 -0.008,-2.87244 0.003,-0.8554 0.006,-1.71084 0.0135,-2.56621 0.0186,-0.77981 0.0401,-1.56595 0.22354,-2.3281 0.16272,-0.65665 0.34985,-1.30697 0.56262,-1.94913 0.17767,-0.6459 0.32463,-1.30461 0.67328,-1.88684 0.36842,-0.64733 0.73961,-1.304049 1.19414,-1.894072 0.17681,-0.167185 0.21354,-0.213612 0.41614,-0.356301 0.076,-0.05356 0.31638,-0.195602 0.23565,-0.149424 -5.5344,3.165437 -3.79611,2.191997 -2.61126,1.491515 0.76732,-0.253797 1.56806,-0.176382 2.35929,-0.07948 1.0654,0.155672 2.1049,0.443862 3.11379,0.819912 0,0 3.27268,-2.234991 3.27268,-2.234991 z" />
    <circle
       id="path52"
       style="fill:#ac9d93;stroke:#000000;stroke-width:0.264583"
       cx="193.50314"
       cy="229.85179"
       r="0.035322174" />
    <path
       style="fill:#ac9d93;stroke-width:0.264583"
       id="path54"
       d="m 139.02914,144.77737 c 0.44495,0.74273 0.92965,1.45922 1.37666,2.20049 0.23416,0.51725 0.60325,0.95499 0.87671,1.44782 0.21003,0.3612 0.48511,0.67677 0.70938,1.02824 0.23837,0.3582 0.52068,0.68031 0.80017,1.00588 0.27661,0.2893 0.5492,0.58174 0.85128,0.84487 0.37372,0.30522 0.75073,0.60594 1.12129,0.91523 0.33427,0.25648 0.7034,0.4547 1.06682,0.66463 0.40926,0.21675 0.84964,0.36151 1.27136,0.55 0.46774,0.18221 0.94892,0.33657 1.43664,0.45625 0.48579,0.0806 0.9495,0.24247 1.43465,0.32572 0.58113,0.0774 1.16824,0.0876 1.75359,0.0957 0.54487,0.005 1.08977,0.003 1.63465,0.002 0.59958,-0.003 1.19915,-0.003 1.79874,-0.003 0.60443,0.0194 1.20151,10e-4 1.7964,-0.11072 0.54069,-0.18592 1.10002,-0.29453 1.65518,-0.42483 1.82105,-0.52876 3.58538,-1.81762 5.11518,-2.6999 0.38255,-0.28934 0.81617,-0.53369 1.17863,-0.84931 0.43145,-0.21318 0.81246,-0.51144 1.19801,-0.79866 0.42165,-0.27514 0.81754,-0.60325 1.21,-0.92471 0.36924,-0.34015 0.67928,-0.74629 1.06274,-1.06882 0.2558,-0.36708 0.47288,-0.76479 0.69022,-1.15658 0.23768,-0.46124 0.39245,-0.93619 0.47671,-1.4478 0.0111,-0.49055 0.17422,-0.94985 0.25394,-1.43019 0,0 -3.57626,1.74009 -3.57626,1.74009 v 0 c -0.0982,0.47329 -0.20511,0.9425 -0.25235,1.42467 -0.10956,0.47028 -0.29217,0.9123 -0.53701,1.32937 -0.22505,0.36555 -0.40041,0.77153 -0.73528,1.05474 -0.33643,0.36243 -0.68979,0.71187 -1.06717,1.03159 -0.40315,0.31035 -0.79369,0.63632 -1.22298,0.91044 -0.3943,0.27627 -0.79455,0.54178 -1.19478,0.80895 -0.39908,0.26507 -0.76722,0.57448 -1.18719,0.80768 6.02579,-3.44491 3.19838,-1.71093 1.74172,-1.1363 -0.55667,0.13094 -1.12415,0.21076 -1.66162,0.41262 -0.55982,0.20354 -1.14364,0.21394 -1.73419,0.19543 -0.59852,7.9e-4 -1.19703,5.3e-4 -1.79555,-2.6e-4 -0.54461,7.9e-4 -1.08922,0.003 -1.63383,0.002 -0.57421,-0.002 -1.14938,-0.004 -1.72184,-0.0545 -0.48748,-0.0523 -0.93928,-0.2128 -1.41693,-0.30242 -0.47581,-0.0887 -0.92627,-0.2515 -1.38753,-0.39229 -0.41461,-0.1809 -0.83171,-0.3456 -1.24822,-0.52206 -0.35413,-0.18796 -0.69641,-0.38752 -1.03256,-0.60527 -0.37729,-0.29278 -0.73648,-0.60925 -1.1125,-0.90344 -0.28854,-0.25005 -0.54909,-0.52301 -0.81753,-0.79339 -0.26256,-0.31598 -0.54806,-0.6115 -0.77515,-0.95645 -0.21731,-0.34909 -0.48195,-0.6623 -0.69957,-1.01084 -0.2807,-0.49462 -0.65937,-0.92944 -0.90266,-1.44803 -0.45137,-0.74071 -0.96088,-1.44453 -1.36901,-2.21118 0,0 -3.42896,1.99575 -3.42896,1.99575 z" />
    <circle
       id="path56"
       style="fill:#ffd42a;stroke:#000000;stroke-width:0.264583"
       cx="114.65862"
       cy="218.09193"
       r="0.035322174" />
    <circle
       id="path58"
       style="fill:#ffcc00;stroke:#000000;stroke-width:0.264583"
       cx="75.102737"
       cy="141.1183"
       r="0.035322174" />
    <circle
       id="path60"
       style="fill:#ffcc00;stroke:#000000;stroke-width:0.264583"
       cx="74.835464"
       cy="134.43657"
       r="0.035322174" />
    <path
       style="fill:#ffcc00;stroke-width:0.264583"
       id="path64"
       d="m 73.067097,126.00363 c 0.03548,0.89092 -0.113022,1.77353 -0.277548,2.64513 -0.138435,0.68045 -0.209558,1.37045 -0.243739,2.06312 -0.02058,0.54775 -0.0182,1.09601 -0.01749,1.64405 -0.02981,0.5122 0.06526,1.03993 -0.04326,1.54371 -0.125005,0.46002 -0.169995,0.93395 -0.198613,1.40802 -0.02458,0.52756 -0.02387,1.05587 -0.02445,1.58388 -0.0013,0.56004 0.0024,1.12006 0.0043,1.6801 5.29e-4,0.59297 -7.94e-4,1.18595 -0.0013,1.77893 -5.29e-4,0.59432 0.0024,1.18862 0.0016,1.78294 -0.0011,0.56864 -0.0019,1.13729 -0.0021,1.70593 -0.01236,0.53009 -0.01794,1.04831 0.09131,1.56799 0.05566,0.45275 0.182745,0.88221 0.301239,1.32058 0.05753,0.4376 0.222904,0.8463 0.313211,1.27683 0.06495,0.43689 0.221573,0.85477 0.399148,1.25705 0.16025,0.43326 0.268528,0.88567 0.441492,1.31399 0.158263,0.45634 0.351086,0.89355 0.574206,1.32133 0.234416,0.43613 0.577152,0.77813 0.961411,1.08084 0.38018,0.32003 0.843542,0.42966 1.323459,0.49311 1.835161,0.16434 3.343754,-1.30442 4.808567,-2.27471 0.306234,-0.26227 0.548894,-0.59284 0.86278,-0.84409 0.250333,-0.3057 0.567367,-0.52365 0.747868,-0.88345 0.04023,-0.0466 0.08046,-0.0932 0.120695,-0.13982 0,0 -3.658801,1.57345 -3.658801,1.57345 v 0 c -0.03674,0.0544 -0.07348,0.10883 -0.110209,0.16326 -0.248693,0.27761 -0.523481,0.53173 -0.784339,0.79767 -0.267033,0.28702 -0.557377,0.5612 -0.886196,0.77589 -1.206537,0.74533 -0.764616,0.46913 3.044505,-1.71584 0.06764,-0.0388 -0.141883,0.0648 -0.211886,0.0991 -0.230312,0.11302 -0.428778,0.19087 -0.693978,0.1439 -0.415065,-0.0268 -0.843772,-0.0514 -1.192072,-0.30508 -0.337884,-0.27529 -0.683165,-0.53104 -0.879383,-0.93869 -0.218353,-0.41494 -0.396153,-0.84306 -0.554365,-1.28479 -0.169395,-0.43524 -0.273299,-0.89421 -0.44462,-1.32911 -0.167081,-0.37987 -0.300439,-0.77546 -0.363995,-1.18706 -0.101081,-0.43383 -0.251206,-0.85393 -0.321947,-1.29495 -0.120007,-0.42778 -0.223666,-0.85378 -0.288589,-1.29424 -0.09136,-0.49485 -0.05651,-0.99496 -0.06089,-1.49622 -5.29e-4,-0.56791 -0.0011,-1.13583 -0.0021,-1.70374 -5.29e-4,-0.5949 0.0021,-1.18978 0.0016,-1.78468 -7.94e-4,-0.5924 -0.0024,-1.1848 -0.0026,-1.77721 7.93e-4,-0.56058 0.0026,-1.12116 0.0019,-1.68175 0.0021,-0.52004 0.0029,-1.04068 0.03927,-1.55972 0.04099,-0.46747 0.122613,-0.92667 0.210876,-1.38721 0.03653,-0.52898 0.0082,-1.05989 0.01558,-1.58983 -1.11e-4,-0.54104 -0.0016,-1.08239 0.02405,-1.62297 0.03987,-0.67481 0.118235,-1.34605 0.250235,-2.00957 0.161941,-0.89708 0.255763,-1.80577 0.262023,-2.71817 0,0 -3.536741,1.80206 -3.536741,1.80206 z" />
    <circle
       id="path66"
       style="fill:#0000ff;stroke:#000000;stroke-width:0.264583"
       cx="38.219543"
       cy="241.61165"
       r="0.035322174" />
    <path
       style="fill:#0000ff;stroke-width:0.264583"
       id="path68"
       d="m 82.928975,101.96493 c -0.63568,0.51732 -1.30152,1.00993 -1.887876,1.58418 -0.400619,0.31421 -0.716894,0.7312 -0.996096,1.15285 -0.273351,0.3479 -0.618318,0.63726 -0.841245,1.02179 -0.298323,0.28826 -0.464084,0.67259 -0.719275,0.98885 -0.139798,0.37553 -0.392875,0.67236 -0.605123,1.00304 -0.155078,0.39975 -0.347581,0.76885 -0.441283,1.19111 -0.2238,0.45608 -0.21177,0.97796 -0.372023,1.449 -0.08824,0.43771 -0.26059,0.84213 -0.382389,1.26901 -0.04678,0.45555 -0.178342,0.88255 -0.282858,1.32545 -0.03264,0.46079 -0.162102,0.89062 -0.266467,1.33668 -0.07516,0.49118 -0.112157,0.97791 -0.215545,1.46412 -0.133866,0.45682 -0.254016,0.93125 -0.41954,1.38042 -0.10659,0.48351 -0.283133,0.94072 -0.415948,1.41599 -0.115401,0.4945 -0.281067,0.97607 -0.438267,1.45911 -0.218146,0.52292 -0.433035,1.05141 -0.593511,1.59553 -0.02098,0.0929 -0.03468,0.18772 -0.06296,0.27865 -0.04709,0.15142 -0.124754,0.29201 -0.174107,0.4427 -0.07312,0.22326 -0.10284,0.43856 -0.201803,0.65246 -0.189727,0.43346 -0.230266,0.90613 -0.260789,1.3725 -0.02511,0.5277 -0.02238,1.05621 -0.02199,1.58435 0.03362,0.33236 -0.01918,0.64076 -0.09372,0.9615 0,0 3.578251,-1.73716 3.578251,-1.73716 v 0 c 0.05505,-0.3412 0.0676,-0.68187 0.05487,-1.0275 0.0011,-0.51878 -7.94e-4,-1.03841 0.03942,-1.55599 0.04594,-0.44096 0.130945,-0.87019 0.310819,-1.27855 0.133543,-0.46462 0.294629,-0.91929 0.42363,-1.38525 0.18516,-0.53583 0.397343,-1.06183 0.596077,-1.59265 0.162076,-0.48533 0.3033,-0.97747 0.439497,-1.47061 0.152177,-0.46579 0.26803,-0.93992 0.417713,-1.40641 0.138105,-0.4726 0.313632,-0.93533 0.397158,-1.42183 0.09211,-0.4821 0.108551,-0.97422 0.228423,-1.45126 0.115072,-0.44163 0.173691,-0.88927 0.267279,-1.33522 0.115769,-0.43258 0.176065,-0.87337 0.293474,-1.3049 0.145764,-0.42205 0.257582,-0.85124 0.372128,-1.28282 0.101177,-0.48968 0.199348,-0.97759 0.375965,-1.44763 0.126098,-0.37203 0.29123,-0.74044 0.49883,-1.07327 0.230396,-0.31739 0.381624,-0.67894 0.605972,-0.99993 0.209608,-0.34955 0.487593,-0.64911 0.716254,-0.98634 0.284511,-0.33532 0.58597,-0.65677 0.843854,-1.01435 0.310314,-0.38653 0.618948,-0.76938 1.013899,-1.07613 0.619792,-0.53909 1.253204,-1.06198 1.897192,-1.57195 0,0 -3.677885,1.49046 -3.677885,1.49046 z" />
    <circle
       id="path70"
       style="fill:#ff8080;stroke:#000000;stroke-width:0.264583"
       cx="93.8116"
       cy="230.65359"
       r="0.035322174" />
    <path
       style="fill:#ff8080;stroke-width:0.264583"
       id="path72"
       d="m 36.317121,134.88796 c -0.800706,0.0728 -1.589228,0.22038 -2.3431,0.5013 -1.397434,0.67083 -2.869007,1.32778 -4.028665,2.34853 -0.162713,0.14322 -0.24021,0.34304 -0.379529,0.50632 -0.199644,0.37092 -0.400108,0.72333 -0.499626,1.13723 -0.02883,0.46706 -0.145457,0.90666 -0.244602,1.36072 -0.09373,0.49386 -0.107526,0.9976 -0.118933,1.49868 -0.0476,0.5505 0.09055,1.08565 0.169442,1.62638 0.137009,0.45233 0.248809,0.90726 0.415735,1.34917 0.183041,0.35563 0.410011,0.68878 0.574781,1.05321 0.208983,0.34954 0.360973,0.72474 0.594973,1.05944 0.251056,0.35474 0.558319,0.67997 0.896522,0.95318 0.399712,0.35723 0.877512,0.57977 1.381665,0.74567 0.493673,0.11556 0.971116,0.2824 1.469427,0.37799 0.533792,0.0864 1.072483,0.11024 1.608791,0.0434 0.575403,-0.0801 1.150223,-0.13122 1.709912,-0.29176 1.535867,-0.57758 3.006871,-1.41515 4.276437,-2.44544 0.795499,-0.64557 -0.412488,0.26267 0.363283,-0.31206 0.06362,-0.0511 0.12373,-0.1069 0.190876,-0.15326 0.445945,-0.26257 -0.01394,0.0259 0.394623,-0.28506 0.06094,-0.0464 0.258715,-0.16387 0.192509,-0.12538 -3.403106,1.97826 -4.260861,2.39491 -2.944694,1.74526 0.410763,-0.23308 0.866569,-0.36034 1.30588,-0.52666 1.717072,-0.48841 3.049371,-1.53177 4.652431,-2.45219 -0.102005,0.0877 0.525335,-0.32601 0.391213,-0.24912 -1.064808,0.61044 -4.208582,2.52521 -3.183832,1.84968 1.159336,-0.76426 2.392931,-1.40942 3.58816,-2.11622 0.240356,-0.14214 0.159809,-0.0864 0.357786,-0.27991 0.370329,-0.26807 0.742394,-0.52181 1.111903,-0.79128 0.353576,-0.36733 0.799195,-0.60895 1.166366,-0.96627 0.446391,-0.44667 0.850005,-0.93638 1.336362,-1.34047 0.245375,-0.28453 0.586026,-0.47726 0.802855,-0.7899 0.115879,-0.16709 0.194093,-0.3574 0.294645,-0.53414 0.05714,-0.0907 0.108111,-0.1855 0.171421,-0.27196 0.315883,-0.43139 0.08564,-0.0297 0.374094,-0.4738 0.148558,-0.22873 0.234183,-0.48017 0.377338,-0.71171 0.217091,-0.44656 0.396912,-0.90527 0.502,-1.39162 0.0768,-0.50865 0.227499,-0.99771 0.410358,-1.47602 0.09969,-0.46975 0.32191,-0.89288 0.483859,-1.34299 0.251164,-0.47395 0.52686,-0.93497 0.759831,-1.41842 0.29564,-0.38453 0.451265,-0.84598 0.642601,-1.28545 0.253868,-0.3744 0.460034,-0.77826 0.696883,-1.16791 0.402122,-0.46801 0.743257,-0.96921 0.948886,-1.55242 0.157057,-0.53698 0.170355,-1.09848 0.180237,-1.65353 0.0039,-0.53644 -0.0011,-1.0729 -0.0035,-1.60934 -0.0021,-0.5344 -0.0027,-1.0688 -0.003,-1.6032 -2.01e-4,-0.5345 -1.51e-4,-1.069 -1.32e-4,-1.6035 0.01672,-0.48719 -0.120539,-0.95694 -0.301887,-1.40308 -0.204769,-0.37039 -0.461418,-0.70389 -0.792813,-0.96757 -0.06721,-0.038 -0.134409,-0.076 -0.201613,-0.11395 0,0 -3.320164,2.19715 -3.320164,2.19715 v 0 c 0.05422,0.0188 0.108445,0.0375 0.162669,0.0563 0.303456,0.17672 0.495969,0.47618 0.676942,0.76991 0.161411,0.40346 0.260096,0.82642 0.237603,1.26457 -1e-5,0.53459 -5.2e-5,1.06917 2.65e-4,1.60376 5.29e-4,0.53485 0.0011,1.0697 0.0037,1.60455 0.0024,0.53283 0.0082,1.06575 -0.0021,1.59853 -0.01783,0.51587 -0.04329,1.03929 -0.241162,1.52351 -0.256054,0.54169 -0.638813,0.99736 -0.972434,1.49183 -0.24642,0.39652 -0.465701,0.80952 -0.687091,1.21966 -0.199544,0.43033 -0.377796,0.86694 -0.642543,1.26425 -0.257932,0.47982 -0.532406,0.95312 -0.742855,1.45637 -0.181314,0.44449 -0.354137,0.88864 -0.486437,1.35057 -0.172926,0.49185 -0.277495,1.00407 -0.390612,1.51231 -0.132559,0.4511 -0.319622,0.88577 -0.547399,1.2972 -0.260932,0.5128 -0.618064,0.95413 -0.920292,1.44217 -0.305615,0.4756 -0.721733,0.83863 -1.139391,1.21546 -0.453224,0.44203 -0.873914,0.91718 -1.346846,1.33876 -0.395629,0.31034 -0.798303,0.60982 -1.184632,0.93104 -0.37524,0.26247 -0.749628,0.52757 -1.104718,0.81712 -0.213889,0.14465 -0.408061,0.27542 -0.36635,0.25172 1.070409,-0.6083 4.249389,-2.48836 3.200657,-1.84339 -1.31618,0.80944 -2.687386,1.52958 -4.00735,2.33423 6.664169,-3.80039 3.484015,-1.74076 2.201034,-1.42027 -0.2228,0.0621 -0.415279,0.16571 -0.630827,0.2394 -0.237951,0.0814 -0.50241,0.0942 -0.720529,0.2364 -1.565984,0.88976 -3.222128,1.64679 -4.622896,2.78651 -0.133,0.11101 -1.047445,0.69763 -0.576635,0.43168 5.745501,-3.24544 3.973409,-2.1772 2.758014,-1.60158 -0.527151,0.24863 -1.088157,0.30006 -1.662052,0.36383 -0.512559,0.0816 -1.012751,0.12973 -1.532496,0.0484 -0.497228,-0.0636 -0.960516,-0.22552 -1.446302,-0.33442 -0.475364,-0.11836 -0.932405,-0.29266 -1.296609,-0.63274 -0.328912,-0.21772 -0.594434,-0.53686 -0.828966,-0.85022 -0.229317,-0.30662 -0.353534,-0.67 -0.557803,-0.9924 -0.165444,-0.35408 -0.377401,-0.68367 -0.562244,-1.0279 -0.156197,-0.41505 -0.262044,-0.84499 -0.382837,-1.27145 -0.08038,-0.51917 -0.187933,-1.03499 -0.135387,-1.56381 0.01796,-0.48015 0.04356,-0.96263 0.157774,-1.43141 0.106156,-0.44305 0.149026,-0.89356 0.258524,-1.33488 0.138261,-0.35573 0.329935,-0.69901 0.563674,-1.00041 0.127748,-0.16786 0.246282,-0.27816 0.41933,-0.399 0.06081,-0.0425 0.247663,-0.16292 0.183078,-0.12646 -3.97488,2.24441 -4.237564,2.38052 -2.961494,1.7035 0.684794,-0.3891 1.485881,-0.53402 2.262891,-0.60254 0,0 3.185086,-2.36839 3.185086,-2.36839 z" />
    <path
       style="fill:#ff8080;stroke-width:0.264583"
       id="path74"
       d="m 52.898873,132.89483 c -0.299495,0.80212 -0.730017,1.54235 -1.074246,2.32465 -0.290578,0.54211 -0.512884,1.13344 -0.851058,1.64744 -0.213643,0.35846 -0.336241,0.77542 -0.572993,1.11765 -0.203022,0.32709 -0.423309,0.64107 -0.611616,0.98038 -0.278172,0.27149 -0.38663,0.65177 -0.661961,0.92719 -0.222004,0.32314 -0.508788,0.5986 -0.851781,0.79446 6.770854,-3.95877 1.594051,-0.925 -0.400486,0.21056 -1.074682,0.61186 4.28675,-2.46825 3.21038,-1.85937 -1.20876,0.68378 -2.400475,1.39735 -3.60757,2.08405 -1.067507,0.6073 4.237966,-2.48425 3.18879,-1.84581 -1.185863,0.72162 -2.399295,1.39693 -3.598942,2.0954 -0.299342,0.29673 -0.536138,0.65728 -0.856409,0.93059 -0.188438,0.34575 -0.453146,0.63415 -0.669665,0.95942 -0.167265,0.33434 -0.384903,0.67394 -0.669457,0.92113 -0.372412,0.28199 -0.775184,0.53337 -1.178668,0.77014 0.177035,-0.052 -0.483164,0.35465 -0.353256,0.2794 1.072367,-0.62117 4.269184,-2.5191 3.209658,-1.87628 -1.179357,0.71551 -2.378652,1.39763 -3.569179,2.0944 -0.254225,0.14879 -0.109199,0.0321 -0.321641,0.23983 -0.29491,0.24725 -0.596098,0.47404 -0.934082,0.66379 -0.312061,0.278 -0.663636,0.52301 -1.017736,0.74562 1.068811,-0.6232 4.278376,-2.48742 3.20643,-1.86962 -1.196734,0.68971 -2.386079,1.39218 -3.580797,2.08538 -0.05984,0.0347 -0.242596,0.13308 -0.182777,0.0983 1.07341,-0.62354 4.325795,-2.43593 3.223633,-1.86475 -0.424177,0.21982 -8.614375,4.95734 -0.357989,0.18742 -1.186251,0.69823 -2.372505,1.39647 -3.558757,2.0947 -0.05412,0.0344 -0.217823,0.13531 -0.162351,0.10316 1.078103,-0.62493 4.30503,-2.5124 3.230375,-1.88156 -1.18682,0.69668 -2.376975,1.38767 -3.566872,2.07909 -0.249325,0.14487 -0.102251,0.0252 -0.311047,0.23217 -0.05277,0.0347 -0.110786,0.0624 -0.158303,0.10401 -0.213555,0.18685 -0.0385,0.11868 -0.281974,0.25911 -0.0551,0.0318 -0.229187,0.10986 -0.174334,0.0777 3.12316,-1.83438 4.381884,-2.37468 3.047569,-1.79311 -0.379492,0.23804 -0.802095,0.32966 -1.240145,0.3825 -0.520252,0.046 -1.043207,0.0435 -1.565026,0.0443 -0.53095,-0.007 -1.062551,0.0117 -1.592964,-0.0156 -0.541157,-0.0553 -1.063201,-0.20769 -1.581724,-0.36479 -0.480348,-0.13392 -0.90438,-0.37549 -1.29568,-0.67761 -0.209005,-0.19117 -0.101793,-0.0937 -0.32172,-0.2924 0,0 -3.379145,2.1005 -3.379145,2.1005 v 0 c 0.224285,0.19182 0.110877,0.088 0.338334,0.3136 0.423198,0.32242 0.847695,0.64105 1.37197,0.78362 0.525904,0.19508 1.074518,0.33736 1.626825,0.43292 0.53376,0.0978 1.07964,0.0356 1.620456,0.0545 0.527733,0.001 1.055725,0.005 1.58319,-0.0147 0.45229,-0.0247 0.918919,-0.0472 1.332109,-0.25217 1.438605,-0.9129 3.076493,-1.50511 4.368506,-2.62145 0.214725,-0.12782 0.107185,-0.0604 0.322315,-0.20264 -1.083783,0.61835 -4.313274,2.51092 -3.24495,1.86623 1.179859,-0.712 2.389592,-1.37332 3.579619,-2.06819 0.05612,-0.0328 0.21449,-0.14633 0.157983,-0.11424 -1.085191,0.61643 -2.163331,1.24519 -3.244998,1.86778 1.195051,-0.68624 2.405451,-1.34643 3.585157,-2.05873 1.065186,-0.64316 -4.343366,2.42932 -3.241509,1.85124 1.223283,-0.64179 2.405875,-1.35833 3.605991,-2.04246 0.06077,-0.0346 0.237146,-0.1484 0.1764,-0.11371 -2.05727,1.17496 -6.944008,4.00677 0.369356,-0.22497 0.337143,-0.25134 0.688311,-0.48578 1.025594,-0.7361 0.311962,-0.22769 0.622022,-0.45175 0.919895,-0.69887 0.09905,-0.0609 0.611449,-0.37462 0.330348,-0.21408 -1.079275,0.61641 -4.275746,2.53457 -3.229906,1.863 1.337897,-0.85911 2.697739,-1.44715 3.943405,-2.34514 0.398466,-0.26849 0.835393,-0.49372 1.145051,-0.8725 0.229571,-0.31291 0.447344,-0.63115 0.652388,-0.96051 0.238184,-0.2964 0.412473,-0.64217 0.69273,-0.90352 0.264483,-0.31011 0.542721,-0.62258 0.882573,-0.85084 -8.360111,4.79622 0.183568,-0.10676 0.415999,-0.23378 1.080156,-0.5903 -4.26598,2.45857 -3.200265,1.84258 11.924202,-6.89232 -7.959675,4.60325 3.987308,-2.31022 0.307189,-0.26788 0.576088,-0.56809 0.813292,-0.89995 0.208045,-0.32905 0.418036,-0.65476 0.641477,-0.97293 0.212241,-0.32404 0.415102,-0.65474 0.606348,-0.99151 0.173019,-0.37889 0.374071,-0.74469 0.568561,-1.1128 0.274489,-0.5563 0.569174,-1.10224 0.815919,-1.67206 0.365421,-0.78502 0.772163,-1.55174 1.068986,-2.36726 0,0 -3.590941,1.68644 -3.590941,1.68644 z" />
    <path
       style="fill:#ff8080;stroke-width:0.264583"
       id="path76"
       d="m 34.750758,147.37706 c 0.878798,0.0725 1.756124,0.18266 2.638536,0.19473 0.524767,-0.0438 1.059842,-0.075 1.571787,-0.2051 0.577622,-0.17974 1.16187,-0.3334 1.746247,-0.48924 0.610301,-0.12306 1.214305,-0.26175 1.812909,-0.43315 1.502773,-0.59292 2.902233,-1.59105 4.247362,-2.37089 0.244967,-0.14202 0.150346,-0.0738 0.351784,-0.27031 0.435108,-0.21846 0.809972,-0.53309 1.22242,-0.79002 0.408408,-0.28825 0.738876,-0.63403 1.008772,-1.05351 0.258961,-0.43011 0.344874,-0.91945 0.504579,-1.38642 0.173315,-0.52575 0.433046,-1.0179 0.607147,-1.54656 0.216046,-0.41687 0.441457,-0.82023 0.667557,-1.23208 0.359833,-0.34733 0.483272,-0.80958 0.561705,-1.2866 0.08275,-0.24597 0.137562,-0.49919 0.190781,-0.75267 0,0 -3.5789,1.7241 -3.5789,1.7241 v 0 c -0.06203,0.25371 -0.130987,0.50545 -0.191159,0.75961 -0.117896,0.44664 -0.353102,0.80682 -0.609912,1.18611 -0.218014,0.42448 -0.487836,0.82288 -0.635897,1.2812 -0.200768,0.52067 -0.453226,1.02211 -0.604673,1.56091 -0.131514,0.44751 -0.276551,0.89426 -0.565693,1.26921 -0.309107,0.35792 -0.642964,0.67436 -1.051129,0.92226 -0.402259,0.28365 -0.834379,0.51896 -1.219379,0.82544 -1.157431,0.72975 -2.679669,1.59746 2.848533,-1.60652 0.632116,-0.36635 -1.263685,0.709 -0.626433,0.31206 -0.553442,0.27921 -1.196266,0.35582 -1.796553,0.48388 -0.585136,0.1366 -1.164534,0.28971 -1.739003,0.46416 -0.139975,0.0464 -0.273661,0.11395 -0.41761,0.14594 -0.361437,0.0803 -0.748787,0.0597 -1.110173,0.14793 -0.86441,0.0806 -1.736069,-0.0791 -2.596888,-0.15179 0,0 -3.236717,2.29732 -3.236717,2.29732 z" />
    <path
       style="fill:#ff8080;stroke-width:0.264583"
       id="path82"
       d="m 53.556421,127.60725 c 0.02048,0.88204 0.01095,1.76448 0.0059,2.64666 5.29e-4,0.58327 0.02906,1.15627 -0.102076,1.72599 -0.160589,0.46242 -0.414864,0.87091 -0.657759,1.29033 0,0 3.632758,-1.61528 3.632758,-1.61528 v 0 c 0.260072,-0.44175 0.483777,-0.91204 0.60185,-1.41302 0.0925,-0.5908 0.04427,-1.18816 0.05013,-1.78405 -0.0051,-0.88419 -0.01447,-1.76863 0.0059,-2.65269 0,0 -3.536741,1.80206 -3.536741,1.80206 z" />
    <rect
       style="fill:none;stroke-width:0.264583"
       id="rect90"
       width="170.78523"
       height="83.120819"
       x="16.036171"
       y="82.586288"
       inkscape:export-xdpi="96"
       inkscape:export-ydpi="96" />
    <ellipse
       style="fill:none;stroke-width:0.264583"
       id="path92"
       cx="87.530769"
       cy="104.76965"
       rx="27.929667"
       ry="32.072342" />
    <ellipse
       style="fill:none;stroke-width:0.264583"
       id="path94"
       cx="43.030396"
       cy="50.113033"
       rx="18.441597"
       ry="5.7462945" />
    <path
       style="fill:none;stroke-width:0.264583"
       id="path96"
       sodipodi:type="arc"
       sodipodi:cx="76.839989"
       sodipodi:cy="54.790253"
       sodipodi:rx="43.965836"
       sodipodi:ry="10.958051"
       sodipodi:start="0"
       sodipodi:end="1.6155659"
       sodipodi:arc-type="slice"
       d="m 120.80582,54.790253 a 43.965836,10.958051 0 0 1 -13.58093,7.920005 43.965836,10.958051 0 0 1 -32.352576,3.027066 l 1.967675,-10.947071 z" />
    <path
       style="fill:none;stroke-width:0.264583"
       id="path98"
       sodipodi:type="arc"
       sodipodi:cx="96.751564"
       sodipodi:cy="110.91685"
       sodipodi:rx="84.457169"
       sodipodi:ry="82.051743"
       sodipodi:start="0"
       sodipodi:end="6.2685655"
       sodipodi:arc-type="arc"
       d="M 181.20873,110.91685 A 84.457169,82.051743 0 0 1 97.06025,192.96804 84.457169,82.051743 0 0 1 12.296652,111.51663 84.457169,82.051743 0 0 1 95.825522,28.870037 84.457169,82.051743 0 0 1 181.19971,109.71731"
       sodipodi:open="true" />
  </g>
</svg>
